<mxfile host="65bd71144e">
    <diagram id="3mYfmLInzGsme6NT69JS" name="Page-1">
        <mxGraphModel dx="2066" dy="1879" grid="1" gridSize="10" guides="1" tooltips="1" connect="1" arrows="1" fold="1" page="1" pageScale="1" pageWidth="850" pageHeight="1100" math="0" shadow="0">
            <root>
                <mxCell id="0"/>
                <mxCell id="1" parent="0"/>
                <mxCell id="7" value="&lt;span id=&quot;docs-internal-guid-7eb2b44c-7fff-094f-a3d4-351122877938&quot;&gt;&lt;p style=&quot;line-height:1.295;margin-top:0pt;margin-bottom:8pt;&quot; dir=&quot;ltr&quot;&gt;&lt;span style=&quot;font-size: 18pt; font-family: Calibri, sans-serif; color: rgb(0, 0, 0); background-color: transparent; font-variant-numeric: normal; font-variant-east-asian: normal; font-variant-alternates: normal; font-variant-position: normal; vertical-align: baseline;&quot;&gt;ბარათები:&lt;/span&gt;&lt;/p&gt;&lt;p style=&quot;line-height:1.295;margin-top:0pt;margin-bottom:8pt;&quot; dir=&quot;ltr&quot;&gt;&lt;span style=&quot;font-size: 18pt; font-family: Calibri, sans-serif; color: rgb(0, 0, 0); background-color: transparent; font-variant-numeric: normal; font-variant-east-asian: normal; font-variant-alternates: normal; font-variant-position: normal; vertical-align: baseline;&quot;&gt;ამ დეპარტამენტის მოვალეობაა ბავშვებს დაუწეროს ბარათები.&lt;/span&gt;&lt;/p&gt;&lt;p style=&quot;line-height:1.295;margin-top:0pt;margin-bottom:8pt;&quot; dir=&quot;ltr&quot;&gt;&lt;span style=&quot;font-size: 18pt; font-family: Calibri, sans-serif; color: rgb(0, 0, 0); background-color: transparent; font-variant-numeric: normal; font-variant-east-asian: normal; font-variant-alternates: normal; font-variant-position: normal; vertical-align: baseline;&quot;&gt;ამ დეპარტამენტის უფროსია: ნიკო ბიბლაია💪&lt;/span&gt;&lt;/p&gt;&lt;br&gt;&lt;p style=&quot;line-height: 1.295; margin-top: 0pt; margin-bottom: 8pt;&quot; dir=&quot;ltr&quot;&gt;&lt;span style=&quot;font-size: 18pt; font-family: Calibri, sans-serif; color: rgb(0, 0, 0); background-color: transparent; font-variant-numeric: normal; font-variant-east-asian: normal; font-variant-alternates: normal; font-variant-position: normal; vertical-align: baseline;&quot;&gt;ბარათები Rules:&lt;/span&gt;&lt;/p&gt;&lt;br&gt;&lt;p style=&quot;line-height:1.295;margin-top:0pt;margin-bottom:8pt;&quot; dir=&quot;ltr&quot;&gt;&lt;span style=&quot;font-size: 11pt; font-family: Calibri, sans-serif; color: rgb(0, 0, 0); background-color: transparent; font-variant-numeric: normal; font-variant-east-asian: normal; font-variant-alternates: normal; font-variant-position: normal; vertical-align: baseline;&quot;&gt;ბარათები იქნება ორი სახის: წითელი და მწვანე&lt;/span&gt;&lt;/p&gt;&lt;br&gt;&lt;p style=&quot;line-height:1.295;margin-top:0pt;margin-bottom:8pt;&quot; dir=&quot;ltr&quot;&gt;&lt;span style=&quot;font-size: 11pt; font-family: Calibri, sans-serif; color: rgb(0, 0, 0); background-color: transparent; font-variant-numeric: normal; font-variant-east-asian: normal; font-variant-alternates: normal; font-variant-position: normal; vertical-align: baseline;&quot;&gt;წესები რომლის მიხედვითაც დაიწერება ზემოთ ხსენებული ბარათები:&lt;/span&gt;&lt;/p&gt;&lt;p style=&quot;line-height:1.295;margin-top:0pt;margin-bottom:8pt;&quot; dir=&quot;ltr&quot;&gt;&lt;span style=&quot;font-size: 11pt; font-family: Calibri, sans-serif; color: rgb(0, 0, 0); background-color: transparent; font-variant-numeric: normal; font-variant-east-asian: normal; font-variant-alternates: normal; font-variant-position: normal; vertical-align: baseline;&quot;&gt;მწვანე ბარათი დაიწერება შემდეგი კრიტერიუმებით:&amp;nbsp;&lt;/span&gt;&lt;/p&gt;&lt;p style=&quot;line-height:1.295;margin-top:0pt;margin-bottom:8pt;&quot; dir=&quot;ltr&quot;&gt;&lt;span style=&quot;font-size: 11pt; font-family: Calibri, sans-serif; color: rgb(0, 0, 0); background-color: transparent; font-variant-numeric: normal; font-variant-east-asian: normal; font-variant-alternates: normal; font-variant-position: normal; vertical-align: baseline;&quot;&gt;1.გაკვეთილზე კარგი დასწრება.&lt;/span&gt;&lt;/p&gt;&lt;p style=&quot;line-height:1.295;margin-top:0pt;margin-bottom:8pt;&quot; dir=&quot;ltr&quot;&gt;&lt;span style=&quot;font-size: 11pt; font-family: Calibri, sans-serif; color: rgb(0, 0, 0); background-color: transparent; font-variant-numeric: normal; font-variant-east-asian: normal; font-variant-alternates: normal; font-variant-position: normal; vertical-align: baseline;&quot;&gt;2.შემოწმებაზე 0ლარის აღება (თუ შეუმოწმდება ანუ მიზეზის გარეშე).&lt;/span&gt;&lt;/p&gt;&lt;p style=&quot;line-height:1.295;margin-top:0pt;margin-bottom:8pt;&quot; dir=&quot;ltr&quot;&gt;&lt;span style=&quot;font-size: 11pt; font-family: Calibri, sans-serif; color: rgb(0, 0, 0); background-color: transparent; font-variant-numeric: normal; font-variant-east-asian: normal; font-variant-alternates: normal; font-variant-position: normal; vertical-align: baseline;&quot;&gt;3.რაზმის გითჰაბის შემოწმებაზე მაღალი ქულის აღება.&lt;/span&gt;&lt;/p&gt;&lt;p style=&quot;line-height:1.295;margin-top:0pt;margin-bottom:8pt;&quot; dir=&quot;ltr&quot;&gt;&lt;span style=&quot;font-size: 11pt; font-family: Calibri, sans-serif; color: rgb(0, 0, 0); background-color: transparent; font-variant-numeric: normal; font-variant-east-asian: normal; font-variant-alternates: normal; font-variant-position: normal; vertical-align: baseline;&quot;&gt;4.რაზმის წესების გათვალისწინება (მაღლა წერია შეგიძლიათ გადაავლოთ თვალი).&lt;/span&gt;&lt;/p&gt;&lt;p style=&quot;line-height:1.295;margin-top:0pt;margin-bottom:8pt;&quot; dir=&quot;ltr&quot;&gt;&lt;span style=&quot;font-size: 11pt; font-family: Calibri, sans-serif; color: rgb(0, 0, 0); background-color: transparent; font-variant-numeric: normal; font-variant-east-asian: normal; font-variant-alternates: normal; font-variant-position: normal; vertical-align: baseline;&quot;&gt;5.მონდომება.&lt;/span&gt;&lt;/p&gt;&lt;p style=&quot;line-height:1.295;margin-top:0pt;margin-bottom:8pt;&quot; dir=&quot;ltr&quot;&gt;&lt;span style=&quot;font-size: 11pt; font-family: Calibri, sans-serif; color: rgb(0, 0, 0); background-color: transparent; font-variant-numeric: normal; font-variant-east-asian: normal; font-variant-alternates: normal; font-variant-position: normal; vertical-align: baseline;&quot;&gt;6. არეაქთებს მნიშვნელოვან მესიჯებს და არ წერს უაზრო მესიჯებს (ასეთი მნიშვნელოვანი მესიჯების შემდეგ მხოლოდ შეკითხვის დაწერა შეგიძლიათ მანამ ყველა არ ნახავს და დაარეაქთებს).&lt;/span&gt;&lt;/p&gt;&lt;br&gt;&lt;p style=&quot;line-height:1.295;margin-top:0pt;margin-bottom:8pt;&quot; dir=&quot;ltr&quot;&gt;&lt;span style=&quot;font-size: 11pt; font-family: Calibri, sans-serif; color: rgb(0, 0, 0); background-color: transparent; font-variant-numeric: normal; font-variant-east-asian: normal; font-variant-alternates: normal; font-variant-position: normal; vertical-align: baseline;&quot;&gt;ბარათები განულდება ყოველი თვის ბოლოს.&lt;/span&gt;&lt;/p&gt;&lt;br&gt;&lt;p style=&quot;line-height:1.295;margin-top:0pt;margin-bottom:8pt;&quot; dir=&quot;ltr&quot;&gt;&lt;span style=&quot;font-size: 11pt; font-family: Calibri, sans-serif; color: rgb(0, 0, 0); background-color: transparent; font-variant-numeric: normal; font-variant-east-asian: normal; font-variant-alternates: normal; font-variant-position: normal; vertical-align: baseline;&quot;&gt;ვისაც ექნება ყველაზე მეტი მწვანე ბარათი დაჯილდოვდება&amp;nbsp; დაწინაურებით (რა თქმა უნდა მე&amp;nbsp; ჩაგიტარებთ გამოცდას, ამ გამოცდის ჩაბარების შემთხვევაში მოხდება დაწინაურება).&lt;/span&gt;&lt;/p&gt;&lt;br&gt;&lt;br&gt;&lt;/span&gt;" style="text;html=1;align=center;verticalAlign=middle;resizable=0;points=[];autosize=1;strokeColor=none;fillColor=#FFFFFF;" vertex="1" parent="1">
                    <mxGeometry x="-210" y="-980" width="1270" height="610" as="geometry"/>
                </mxCell>
                <mxCell id="8" style="edgeStyle=none;shape=arrow;html=1;" edge="1" parent="1" source="7" target="7">
                    <mxGeometry relative="1" as="geometry"/>
                </mxCell>
                <mxCell id="9" style="edgeStyle=none;shape=arrow;html=1;" edge="1" parent="1" source="7" target="7">
                    <mxGeometry relative="1" as="geometry"/>
                </mxCell>
            </root>
        </mxGraphModel>
    </diagram>
</mxfile>